{
  "asset": {
    "generator": "Godot MCP Test",
    "version": "2.0"
  },
  "scene": 0,
  "scenes": [
    {
      "name": "Scene",
      "nodes": [0]
    }
  ],
  "nodes": [
    {
      "name": "Cube",
      "mesh": 0
    }
  ],
  "meshes": [
    {
      "name": "Cube",
      "primitives": [
        {
          "attributes": {
            "POSITION": 0,
            "NORMAL": 1
          },
          "indices": 2,
          "mode": 4
        }
      ]
    }
  ],
  "accessors": [
    {
      "bufferView": 0,
      "componentType": 5126,
      "count": 24,
      "type": "VEC3",
      "max": [1.0, 1.0, 1.0],
      "min": [-1.0, -1.0, -1.0]
    },
    {
      "bufferView": 1,
      "componentType": 5126,
      "count": 24,
      "type": "VEC3"
    },
    {
      "bufferView": 2,
      "componentType": 5123,
      "count": 36,
      "type": "SCALAR"
    }
  ],
  "bufferViews": [
    {
      "buffer": 0,
      "byteOffset": 0,
      "byteLength": 288
    },
    {
      "buffer": 0,
      "byteOffset": 288,
      "byteLength": 288
    },
    {
      "buffer": 0,
      "byteOffset": 576,
      "byteLength": 72
    }
  ],
  "buffers": [
    {
      "uri": "data:application/octet-stream;base64,",
      "byteLength": 648
    }
  ]
}
